<?xml version="1.0" encoding="UTF-8"?>
<svg version="1.1" xmlns="http://www.w3.org/2000/svg" width="225" height="225">
<path d="M0 0 C74.25 0 148.5 0 225 0 C225 74.25 225 148.5 225 225 C150.75 225 76.5 225 0 225 C0 150.75 0 76.5 0 0 Z " fill="#FDFDFD" transform="translate(0,0)"/>
<path d="M0 0 C1.9375 1.0625 1.9375 1.0625 3 3 C3.66198593 9.26160808 1.95334938 12.58987129 -1.25 17.6875 C-12.4999198 36.61329462 -15.102884 58.9580606 -10.10546875 80.37890625 C-3.00699198 103.6308072 11.20346246 122.33879876 32.6328125 134.0390625 C50.92768824 143.45740902 71.43560595 145.987112 91.35546875 140.6171875 C95.06917776 139.75047255 97.37747865 139.81874304 101 141 C103 142.6875 103 142.6875 104 145 C103.44490807 152.09933361 99.57462484 155.86304587 95 161 C94.26523438 161.83015625 93.53046875 162.6603125 92.7734375 163.515625 C76.70026448 180.61017022 52.22712091 192.19426113 28.73046875 193.21875 C0.62138641 193.99153834 -24.76779243 185.638419 -45.51123047 166.41455078 C-57.45558031 155.06565557 -65.08070625 142.25285098 -71 127 C-71.31839844 126.18789062 -71.63679688 125.37578125 -71.96484375 124.5390625 C-80.1661536 101.93445724 -77.61450017 75.18566513 -67.7746582 53.5559082 C-55.78460244 28.4800502 -35.68879909 10.81291098 -10 1 C-6.44646071 -0.1845131 -3.72986522 -0.26641894 0 0 Z " fill="#030303" transform="translate(100,18)"/>
<path d="M0 0 C-2.78514589 11.30769231 -2.78514589 11.30769231 -4.125 15.625 C-10.60516736 40.61993124 -4.19778726 66.97995227 8.13671875 89.0234375 C11.04974498 93.6769511 14.44122531 97.83219789 18 102 C18.63421875 102.82757813 19.2684375 103.65515625 19.921875 104.5078125 C34.3378852 121.79618564 59.06085202 132.33475824 81 135 C86.3259993 135.45896153 91.66088527 135.74543744 97 136 C88.14233809 145.36149222 77.19123242 150.35092363 65 154 C63.98679687 154.3196875 62.97359375 154.639375 61.9296875 154.96875 C42.05960254 160.45716221 20.45664795 156.91956343 2.31640625 147.625 C-16.22834632 136.97840258 -30.51028953 121.07352548 -38 101 C-38.391875 99.98808594 -38.78375 98.97617188 -39.1875 97.93359375 C-45.84107794 77.6263194 -43.461968 54.72612185 -34.25 35.75 C-28.66813736 24.89666681 -14.00744641 0 0 0 Z " fill="#FBFBFB" transform="translate(80,40)"/>
</svg>
