<?xml version="1.0" encoding="UTF-8"?>
<svg version="1.1" xmlns="http://www.w3.org/2000/svg" width="640" height="640">
<path d="M0 0 C211.2 0 422.4 0 640 0 C640 211.2 640 422.4 640 640 C428.8 640 217.6 640 0 640 C0 428.8 0 217.6 0 0 Z " fill="#000000" transform="translate(0,0)"/>
<path d="M0 0 C1.41732422 0.73476562 1.41732422 0.73476562 2.86328125 1.484375 C11.15871441 6.00328801 18.02335313 11.70881104 25 18 C25.67933594 18.59554687 26.35867188 19.19109375 27.05859375 19.8046875 C34.61981108 26.82457056 41.00493472 36.50953924 45 46 C45.40863281 46.928125 45.81726563 47.85625 46.23828125 48.8125 C54.52898464 68.76888338 54.90476375 89.18850242 50 110 C49.79624756 110.96607178 49.79624756 110.96607178 49.58837891 111.95166016 C48.45020282 117.04924924 46.54798655 121.3882189 44.125 126 C43.61646484 126.99 43.61646484 126.99 43.09765625 128 C42.41547935 129.32804019 41.72938819 130.65407737 41.03930664 131.97802734 C39.62566687 134.72826567 38.28213628 137.51184202 36.94360352 140.29931641 C35.42898852 143.02915031 33.27395053 144.87764617 31 147 C29.6639242 148.5601556 28.33094766 150.12296737 27 151.6875 C17.32457824 162.41494455 6.04106295 169.12250871 -7 175 C-8.14726562 175.52335938 -9.29453125 176.04671875 -10.4765625 176.5859375 C-32.62624045 185.4752761 -58.04643766 184.21683961 -79.9440918 175.36572266 C-96.18193607 168.38920894 -110.06854673 157.74670335 -120 143 C-120.68255859 142.38705078 -120.68255859 142.38705078 -121.37890625 141.76171875 C-123.82962029 139.09841265 -125.34085684 135.93730134 -127 132.75 C-127.34289062 132.10675781 -127.68578125 131.46351563 -128.0390625 130.80078125 C-131.57874074 124.08620077 -134.34600318 117.44177881 -136.125 110.0625 C-136.29386719 109.39798828 -136.46273437 108.73347656 -136.63671875 108.04882812 C-142.93773758 82.47264541 -138.13237084 56.50147977 -124.625 34.125 C-120.92847315 28.60507425 -116.58439265 23.79089682 -112 19 C-111.45988281 18.39671875 -110.91976562 17.7934375 -110.36328125 17.171875 C-103.01781064 9.25282859 -93.00141264 2.10505743 -83 -2 C-82.0615625 -2.40734375 -81.123125 -2.8146875 -80.15625 -3.234375 C-54.85858283 -13.67273281 -24.27047133 -13.42786013 0 0 Z " fill="#010101" transform="translate(363,234)"/>
<path d="M0 0 C1.53682792 0.59596462 3.07834029 1.18003717 4.625 1.75 C5.73875 2.1625 6.8525 2.575 8 3 C8 3.66 8 4.32 8 5 C8.87269531 5.25652344 9.74539063 5.51304687 10.64453125 5.77734375 C31.78459317 13.48029995 49.70290777 35.47726009 59.08203125 55.28515625 C65.61171807 70.86795468 69.40030035 86.51430922 69.3125 103.4375 C69.30903564 104.5320752 69.30557129 105.62665039 69.30200195 106.75439453 C69.19604069 114.62128651 68.35033234 121.47506764 66 129 C65.79866455 129.80018555 65.5973291 130.60037109 65.38989258 131.42480469 C63.68197874 138.16147701 61.34722439 144.25449887 58.3125 150.5 C57.87043213 151.41563721 57.42836426 152.33127441 56.97290039 153.2746582 C53.59442683 160.11495682 49.95567316 166.16635325 45 172 C44.30390625 172.83273437 43.6078125 173.66546875 42.890625 174.5234375 C30.13590377 189.22302757 15.44246605 198.79178068 -2 207 C-3.22396484 207.60328125 -3.22396484 207.60328125 -4.47265625 208.21875 C-28.11976426 218.92687438 -58.44507125 215.75625388 -82.1875 207.25 C-84.12997121 206.51297092 -86.06970003 205.76834126 -88 205 C-88 204.34 -88 203.68 -88 203 C-88.88042969 202.89945313 -89.76085937 202.79890625 -90.66796875 202.6953125 C-99.38359197 200.87657753 -107.26168641 193.61340504 -114 188 C-114.60303955 187.50193848 -115.2060791 187.00387695 -115.82739258 186.49072266 C-120.55714132 182.48789011 -124.56368533 178.30387634 -128.3125 173.375 C-129.13391479 172.30040527 -129.13391479 172.30040527 -129.97192383 171.20410156 C-137.87432314 160.50946795 -146.23102985 146.98983117 -149 133.8125 C-149.24556641 132.65427734 -149.24556641 132.65427734 -149.49609375 131.47265625 C-150.34289555 127.31741952 -151.18026644 123.16066444 -152 119 C-152.16967285 118.22567627 -152.3393457 117.45135254 -152.51416016 116.65356445 C-155.99941955 97.61774319 -152.30622452 76.28015197 -144 59 C-143.35262016 57.45898211 -142.70670431 55.91734808 -142.0625 54.375 C-138.18805719 45.78923472 -132.98153659 38.24080745 -127 31 C-126.4328125 30.3090625 -125.865625 29.618125 -125.28125 28.90625 C-118.49623164 20.88759194 -110.66264479 14.87199412 -102 9 C-101.39671875 8.56171875 -100.7934375 8.1234375 -100.171875 7.671875 C-97.04171133 5.42701015 -96.04029025 5 -92 5 C-92 4.34 -92 3.68 -92 3 C-90.68 3 -89.36 3 -88 3 C-88 2.34 -88 1.68 -88 1 C-59.26119037 -9.17215599 -28.66035369 -13.24042956 0 0 Z M-111 36 C-111.61488281 36.53882813 -112.22976562 37.07765625 -112.86328125 37.6328125 C-120.68349372 44.78785748 -126.88505441 55.27552954 -131 65 C-131.50273437 66.16982422 -131.50273437 66.16982422 -132.015625 67.36328125 C-139.68640126 86.68333339 -139.77780453 107.01806049 -135 127 C-134.80664062 127.87527344 -134.61328125 128.75054687 -134.4140625 129.65234375 C-132.4548864 137.29821931 -128.57360921 144.21555787 -124.94091797 151.17480469 C-124.06003238 152.88354901 -123.21983414 154.61309655 -122.3828125 156.34375 C-120.6941539 159.58750099 -118.65049371 161.46474514 -116 164 C-114.55536197 165.61865753 -113.11861122 167.24437069 -111.6875 168.875 C-95.44153884 186.90828366 -72.98253861 197.97546834 -48.6875 199.34765625 C-28.66121644 200.07256644 -11.36031282 195.88354173 6 186 C6.9075 185.52949219 7.815 185.05898438 8.75 184.57421875 C18.51884613 179.26710522 27.6313525 170.83255123 33.8515625 161.62109375 C35 160 35 160 36.40234375 158.73046875 C38.8167191 156.11538738 40.30821565 153.01061111 41.9375 149.875 C42.29158936 149.19703369 42.64567871 148.51906738 43.01049805 147.82055664 C44.01484069 145.88428768 45.00821915 143.94272367 46 142 C46.43054688 141.17628906 46.86109375 140.35257813 47.3046875 139.50390625 C56.8460156 119.94048546 56.39521135 93.43769585 50 73 C42.03575489 50.61889192 26.97455423 31.51412126 6 20 C5.24847656 19.55914062 4.49695313 19.11828125 3.72265625 18.6640625 C-35.17890419 -3.89747519 -79.59108068 6.48318425 -111 36 Z " fill="#F6F6F4" transform="translate(362,217)"/>
<path d="M0 0 C1.6856842 1.0098877 1.6856842 1.0098877 3 3 C3.3013663 5.83225252 3.42003797 8.44556501 3.40405273 11.27929688 C3.41091599 12.12347672 3.41777924 12.96765656 3.42485046 13.8374176 C3.44317091 16.63136554 3.43927391 19.42475482 3.43359375 22.21875 C3.43815272 24.15783878 3.44345744 26.09692595 3.44947815 28.03601074 C3.45841933 32.10138511 3.45597431 36.16656313 3.44604492 40.23193359 C3.43454831 45.44783348 3.45477224 50.66305709 3.48396206 55.8788681 C3.50228571 59.88340577 3.50203938 63.88778019 3.49632454 67.89234924 C3.49617088 69.81572926 3.50225155 71.73912004 3.51461601 73.66246033 C3.5294537 76.34897625 3.51890317 79.03422746 3.50170898 81.72070312 C3.51137695 82.51871841 3.52104492 83.3167337 3.53100586 84.13893127 C3.45873302 89.51720749 3.45873302 89.51720749 1.09584045 92.00402832 C-1.26215721 93.12458065 -2.49266538 93.28905734 -5.0625 92.9375 C-5.73410156 92.86402344 -6.40570313 92.79054688 -7.09765625 92.71484375 C-9.84302499 91.68321648 -10.53918204 90.55519603 -12 88 C-12.3004496 85.22481655 -12.43055567 82.67352861 -12.41992188 79.8984375 C-12.42839142 79.08497864 -12.43686096 78.27151978 -12.44558716 77.43341064 C-12.46896799 74.74711434 -12.46997919 72.06139031 -12.46875 69.375 C-12.47585014 67.50699636 -12.48354892 65.63899491 -12.49182129 63.77099609 C-12.505268 59.85703466 -12.50683366 55.94327495 -12.50097656 52.02929688 C-12.49507555 47.01181255 -12.52568748 41.9952942 -12.56609344 36.97799683 C-12.5919306 33.12095925 -12.59485159 29.26415564 -12.59120178 25.40704346 C-12.59289629 23.55704314 -12.60257058 21.70703239 -12.62034607 19.8571167 C-12.64246142 17.27127181 -12.63287367 14.68740013 -12.61523438 12.1015625 C-12.62849762 11.33676575 -12.64176086 10.57196899 -12.65542603 9.78399658 C-12.59529 5.99353565 -12.3128486 4.33546277 -9.68811035 1.52099609 C-6.19950611 -0.45293828 -3.9481466 -0.51179678 0 0 Z " fill="#F4F4F2" transform="translate(321,80)"/>
<path d="M0 0 C3.58658334 2.73803576 4.86787435 4.21786905 5.62818909 8.71862793 C5.6547052 10.18131924 5.65389876 11.64466784 5.63110352 13.10742188 C5.63825882 13.9096669 5.64541412 14.71191193 5.65278625 15.53846741 C5.66965416 18.18247948 5.65028307 20.82479133 5.62890625 23.46875 C5.62973513 25.31050761 5.63219523 27.15226515 5.63621521 28.99401855 C5.6390719 32.85089427 5.62438482 36.70718885 5.59692383 40.56396484 C5.56284115 45.50391812 5.56886041 50.44283237 5.5875864 55.38283539 C5.59816284 59.18504471 5.58921274 62.98701291 5.57420158 66.78919983 C5.56902403 68.61043074 5.5694964 70.43168688 5.57574654 72.25291443 C5.5812066 74.80001837 5.56079963 77.34564284 5.53344727 79.89257812 C5.53997314 80.64285782 5.54649902 81.39313751 5.55322266 82.16615295 C5.48763143 85.76427453 5.0759798 87.87557614 3.18540955 90.97155762 C1 93 1 93 -2.5 93.5625 C-6.63038695 92.89868781 -7.56200512 92.33874595 -10 89 C-10.39457951 86.10574127 -10.54741715 83.59213507 -10.51757812 80.69897461 C-10.5245874 79.86440231 -10.53159668 79.02983002 -10.53881836 78.16996765 C-10.55641135 75.41375372 -10.54477231 72.65856795 -10.53125 69.90234375 C-10.53394429 67.98710432 -10.53782618 66.07186622 -10.54284668 64.15663147 C-10.54874327 60.14424608 -10.54017262 56.13221701 -10.52148438 52.11987305 C-10.49867934 46.97235014 -10.5118267 41.82566071 -10.53577423 36.6781683 C-10.55021472 32.72422481 -10.54563453 28.77047962 -10.53526306 24.81653023 C-10.53259173 22.91827865 -10.53587977 21.02000916 -10.54518127 19.12177849 C-10.55531988 16.47124262 -10.53988502 13.82206529 -10.51757812 11.17163086 C-10.52567505 10.38453735 -10.53377197 9.59744385 -10.54211426 8.78649902 C-10.45939562 3.49187864 -10.45939562 3.49187864 -8.15124512 1.02052307 C-5.13652644 -0.40962078 -3.30043374 -0.53884632 0 0 Z " fill="#F4F4F2" transform="translate(326,467)"/>
<path d="M0 0 C0.84417984 -0.00700928 1.68835968 -0.01401855 2.55812073 -0.02124023 C5.35223152 -0.03886439 8.1453318 -0.02718206 10.93945312 -0.01367188 C12.87854202 -0.01636552 14.8176296 -0.02024688 16.75671387 -0.02526855 C20.8221522 -0.03116959 24.88723919 -0.02258116 28.95263672 -0.00390625 C34.16856603 0.01888362 39.38367213 0.00576378 44.59957123 -0.01819611 C48.60412825 -0.03263773 52.60848951 -0.02805561 56.61305237 -0.01768494 C58.53642372 -0.01501312 60.45981273 -0.01830333 62.38316345 -0.02760315 C65.06972451 -0.03774189 67.75494525 -0.02230585 70.44140625 0 C71.23942154 -0.00809692 72.03743683 -0.01619385 72.8596344 -0.02453613 C78.22716235 0.05819179 78.22716235 0.05819179 80.70690918 2.36633301 C82.12783669 5.38150526 82.25904774 7.22021733 81.72070312 10.51757812 C78.98313583 14.10220668 77.49934676 15.38463258 73.0020752 16.15249634 C71.5394367 16.18203969 70.07608499 16.18428377 68.61328125 16.16455078 C67.40991371 16.17769318 67.40991371 16.17769318 66.18223572 16.19110107 C63.53825314 16.21305437 60.8959518 16.19855779 58.25195312 16.18164062 C56.41019368 16.18500995 54.56843641 16.18986355 52.72668457 16.19613647 C48.86982011 16.20350226 45.01353528 16.19281195 41.15673828 16.16943359 C36.21664544 16.14094578 31.27791076 16.15735136 26.33786774 16.18729591 C22.53564244 16.20537697 18.73373835 16.1996072 14.9315033 16.18665695 C13.11026345 16.18332516 11.28899431 16.18740205 9.4677887 16.19905472 C6.92045021 16.21177713 4.37530069 16.19236937 1.828125 16.16455078 C1.07784531 16.17467194 0.32756561 16.18479309 -0.44544983 16.19522095 C-4.38018709 16.11574449 -6.1285863 15.6365591 -9.25476074 13.16854858 C-11.27929688 10.51757812 -11.27929688 10.51757812 -11.77929688 7.45507812 C-10.54209233 0.18650144 -6.63973137 -0.06736888 0 0 Z " fill="#F7F7F4" transform="translate(91.279296875,315.482421875)"/>
<path d="M0 0 C3.25390625 1.6796875 3.25390625 1.6796875 6.5625 3.875 C10.30936922 6.33760662 13.76392365 8.50120204 18 10 C18 10.66 18 11.32 18 12 C18.86786133 12.26264648 19.73572266 12.52529297 20.62988281 12.79589844 C24.00061837 14.00022094 26.83340666 15.46460246 29.921875 17.265625 C31.03046875 17.90886719 32.1390625 18.55210937 33.28125 19.21484375 C34.43754362 19.89315482 35.59379342 20.57154058 36.75 21.25 C37.87921875 21.90613281 39.0084375 22.56226563 40.171875 23.23828125 C46.09853055 26.68863743 51.99655799 30.18097489 57.85107422 33.75244141 C59.98328278 34.99029482 62.14561979 36.07411371 64.375 37.125 C67.54345368 38.70281296 69.98744756 39.98117134 72 43 C72.62074053 46.51752966 72.63280434 49.73439132 71 53 C67.73930839 54.63034581 64.52409783 54.53324166 61 54 C57.82850736 52.67446437 55.01137219 50.91838668 52.125 49.0625 C51.36703125 48.59392578 50.6090625 48.12535156 49.828125 47.64257812 C48.43383864 46.78045266 47.04408631 45.91091647 45.66064453 45.03149414 C43.9748444 43.94907165 43.9748444 43.94907165 42 43 C42 42.34 42 41.68 42 41 C41.28859863 40.89671387 40.57719727 40.79342773 39.84423828 40.68701172 C36.63498218 39.91183175 34.33759605 38.67846199 31.4921875 37.0078125 C30.43128906 36.3900293 29.37039062 35.77224609 28.27734375 35.13574219 C26.59318359 34.1404248 26.59318359 34.1404248 24.875 33.125 C23.71260032 32.44372007 22.54983679 31.76306059 21.38671875 31.08300781 C19.62523901 30.0527118 17.86421605 29.02169104 16.10491943 27.9876709 C12.46456111 25.84892373 8.80742861 23.74333888 5.1328125 21.6640625 C4.25898926 21.1676123 3.38516602 20.67116211 2.48486328 20.15966797 C0.86352502 19.23987949 -0.76039399 18.32462108 -2.38720703 17.41455078 C-3.10505371 17.00446777 -3.82290039 16.59438477 -4.5625 16.171875 C-5.18253906 15.8222168 -5.80257812 15.47255859 -6.44140625 15.11230469 C-8.68802619 13.50898382 -9.86341353 11.7877545 -10.3359375 9.0625 C-10.44048975 3.54214123 -10.44048975 3.54214123 -8.375 1 C-5.29978105 -0.29482903 -3.33318936 -0.3113638 0 0 Z " fill="#F4F4F2" transform="translate(120,199)"/>
<path d="M0 0 C3.5625 0.375 3.5625 0.375 6 1.4375 C7.5625 3.375 7.5625 3.375 8.0625 6.625 C7.48710488 10.94046339 5.7596964 13.72922909 3.5625 17.375 C2.6865071 18.88148034 1.81292701 20.38936555 0.94140625 21.8984375 C-0.46594569 24.32341315 -1.87386721 26.74805179 -3.28320312 29.171875 C-5.47594324 32.95182868 -7.64874396 36.73906848 -9.7578125 40.56640625 C-13.00138216 46.42906705 -16.3703268 52.21878096 -19.74829102 58.00463867 C-20.49975623 59.29377196 -21.24910537 60.58414109 -21.99633789 61.87573242 C-31.64332492 78.5483115 -31.64332492 78.5483115 -35.4375 82.375 C-38.5 83.1875 -38.5 83.1875 -41.4375 82.375 C-44.375 80.3125 -44.375 80.3125 -46.4375 77.375 C-46.41133155 70.59737136 -43.09813865 65.68439775 -39.6875 60 C-38.62975097 58.20078964 -37.57245511 56.40131278 -36.515625 54.6015625 C-35.74508789 53.3007373 -35.74508789 53.3007373 -34.95898438 51.97363281 C-32.71722875 48.14480629 -30.56931535 44.26586075 -28.4375 40.375 C-27.7775 40.375 -27.1175 40.375 -26.4375 40.375 C-26.05078125 39.10269531 -26.05078125 39.10269531 -25.65625 37.8046875 C-24.37021145 34.18564313 -22.7591168 30.86839158 -20.9375 27.5 C-20.42280151 26.5423877 -20.42280151 26.5423877 -19.89770508 25.56542969 C-17.12846077 20.48920086 -14.1753164 15.53677423 -11.125 10.625 C-10.70476562 9.9458252 -10.28453125 9.26665039 -9.8515625 8.56689453 C-4.77734847 0.52116529 -4.77734847 0.52116529 0 0 Z " fill="#F4F4F2" transform="translate(245.4375,447.625)"/>
<path d="M0 0 C3.25390625 1.46875 3.25390625 1.46875 6.5625 3.5 C7.77970458 4.23217552 8.99716034 4.96393359 10.21484375 5.6953125 C10.83472168 6.07461914 11.45459961 6.45392578 12.09326172 6.84472656 C15.23581865 8.74877002 18.43132718 10.5585008 21.625 12.375 C22.75164062 13.02210938 23.87828125 13.66921875 25.0390625 14.3359375 C27.33556697 15.62658513 29.62894338 16.85495314 32 18 C32 18.66 32 19.32 32 20 C32.73557129 20.11537109 33.47114258 20.23074219 34.22900391 20.34960938 C37.04276325 21.01003712 38.88657055 21.90081232 41.3359375 23.40625 C42.14643555 23.89843018 42.95693359 24.39061035 43.79199219 24.89770508 C44.64438477 25.4264624 45.49677734 25.95521973 46.375 26.5 C48.15827561 27.59859594 49.94213619 28.69624285 51.7265625 29.79296875 C53.05349121 30.60967041 53.05349121 30.60967041 54.40722656 31.44287109 C56.79234422 32.87528922 59.20107784 34.22835762 61.6484375 35.55078125 C62.69378662 36.12892578 62.69378662 36.12892578 63.76025391 36.71875 C65.05597829 37.43100095 66.36276075 38.12360584 67.68115234 38.79296875 C69.421875 39.76953125 69.421875 39.76953125 72 42 C72.65079646 46.47728393 72.51734368 48.2475001 69.9375 52 C67 54 67 54 63.75 54.125 C55.43420864 51.63026259 47.97260165 46.25636378 40.5625 41.8125 C39.66595703 41.27947266 38.76941406 40.74644531 37.84570312 40.19726562 C36.99041016 39.68486328 36.13511719 39.17246094 35.25390625 38.64453125 C34.48377197 38.18409424 33.7136377 37.72365723 32.92016602 37.24926758 C31 36 31 36 29 34 C27.32104254 33.27155245 25.64039951 32.54656405 23.94873047 31.84814453 C18.47734532 29.46683759 13.36607748 26.26463562 8.21533203 23.26904297 C5.96239214 21.97845651 3.68503806 20.74095116 1.40234375 19.50390625 C-0.06613181 18.67108022 -1.53361226 17.83649667 -3 17 C-3.7005249 16.63382568 -4.4010498 16.26765137 -5.12280273 15.89038086 C-7.10571499 14.72459318 -8.53651202 13.77806951 -10 12 C-10.75486954 8.88134191 -10.80358221 6.10951379 -10 3 C-7.12822496 -0.76247197 -4.58716672 -0.50059322 0 0 Z " fill="#F4F4F1" transform="translate(458,387)"/>
<path d="M0 0 C1.20336754 -0.0131424 1.20336754 -0.0131424 2.43104553 -0.02655029 C5.07502811 -0.04850359 7.71732945 -0.03400701 10.36132812 -0.01708984 C12.20308757 -0.02045917 14.04484484 -0.02531277 15.88659668 -0.03158569 C19.74346114 -0.03895148 23.59974597 -0.02826117 27.45654297 -0.00488281 C32.39663581 0.02360501 37.33537049 0.00719943 42.27541351 -0.02274513 C46.07763881 -0.04082618 49.8795429 -0.03505642 53.68177795 -0.02210617 C55.5030178 -0.01877438 57.32428694 -0.02285127 59.14549255 -0.03450394 C61.69283104 -0.04722635 64.23798056 -0.02781859 66.78515625 0 C67.53543594 -0.01012115 68.28571564 -0.02024231 69.05873108 -0.03067017 C73.01742916 0.04929026 74.73646031 0.52171381 77.86413574 3.03115845 C79.89257812 5.64697266 79.89257812 5.64697266 80.45507812 8.14697266 C79.67096757 11.63190844 78.47657916 13.16749437 75.89257812 15.64697266 C72.9341704 16.14578572 70.54900475 16.32212212 67.59155273 16.27807617 C66.33969429 16.28880913 66.33969429 16.28880913 65.06254578 16.29975891 C62.30611301 16.31665712 59.55130395 16.29723923 56.79492188 16.27587891 C54.87968308 16.27670743 52.96444435 16.27916617 51.04920959 16.28318787 C47.03673888 16.28604653 43.02482618 16.27133664 39.01245117 16.24389648 C33.86490008 16.20979056 28.71834541 16.21583888 23.57074642 16.23455906 C19.61678231 16.24511779 15.66305082 16.23620189 11.70910835 16.22117424 C9.8108648 16.21598523 7.91259702 16.21648293 6.01435661 16.22271919 C3.36377414 16.22815876 0.71462787 16.20783866 -1.93579102 16.18041992 C-3.11643127 16.19020874 -3.11643127 16.19020874 -4.32092285 16.20019531 C-9.61525571 16.10688342 -9.61525571 16.10688342 -12.0868988 13.79722595 C-13.51744582 10.78304771 -13.64620825 8.94703921 -13.10742188 5.64697266 C-9.28258399 0.63864899 -6.02089445 -0.08122092 0 0 Z " fill="#F5F5F3" transform="translate(480.107421875,308.35302734375)"/>
<path d="M0 0 C2.52579109 2.05220526 2.88768751 3.47587506 3.5625 6.625 C2.50018406 12.99889564 -1.70507565 18.13025759 -5.3125 23.375 C-6.80553759 25.69750291 -7.58494375 27.3021344 -8 30 C-8.66 30 -9.32 30 -10 30 C-10.26039063 30.70640625 -10.52078125 31.4128125 -10.7890625 32.140625 C-12.0850477 35.20082232 -13.65353996 37.90846333 -15.375 40.75 C-18.31068678 45.70205619 -20.83289321 50.6697249 -23 56 C-23.66 56 -24.32 56 -25 56 C-25.268125 56.680625 -25.53625 57.36125 -25.8125 58.0625 C-27.16053306 61.39710809 -28.57536298 64.69743237 -30 68 C-30.66 68 -31.32 68 -32 68 C-32.226875 68.845625 -32.45375 69.69125 -32.6875 70.5625 C-34.34607407 74.90638448 -36.68036905 79.84018453 -41 82 C-44.54231061 82.38503376 -46.36257342 82.41935959 -49.375 80.4375 C-51.64433111 77.03350333 -51.4001046 75.05879303 -51 71 C-49.81043949 68.16461417 -48.21825945 65.64728421 -46.5625 63.0625 C-45.64036764 61.56345817 -44.71983161 60.06343336 -43.80078125 58.5625 C-43.33236816 57.80582031 -42.86395508 57.04914063 -42.38134766 56.26953125 C-40.2414478 52.75371134 -38.24549096 49.16161035 -36.25 45.5625 C-33.45865708 40.56066817 -30.59413089 35.62085926 -27.6171875 30.7265625 C-23.95671929 24.55504847 -20.49768523 18.26474288 -17 12 C-16.34 12 -15.68 12 -15 12 C-14.9175 11.29875 -14.835 10.5975 -14.75 9.875 C-13.82123251 6.31472462 -12.19727086 3.92969448 -10 1 C-6.80594916 -0.59702542 -3.46728571 -0.50343003 0 0 Z " fill="#F6F6F4" transform="translate(438,110)"/>
<path d="M0 0 C4.7017242 1.67805645 6.19589248 6.54410807 8.27490234 10.78564453 C10.33815544 14.81674574 12.70704392 18.67945248 15.0078125 22.578125 C24.3203125 38.46177601 24.3203125 38.46177601 24.3203125 41.828125 C24.9803125 41.828125 25.6403125 41.828125 26.3203125 41.828125 C26.67222656 42.48296875 27.02414063 43.1378125 27.38671875 43.8125 C30.14235107 48.90646262 32.95413049 53.95638244 35.8828125 58.953125 C36.75099609 60.44585937 36.75099609 60.44585937 37.63671875 61.96875 C38.70560684 63.78412374 39.79460338 65.58792268 40.91015625 67.375 C43.04463313 70.89895628 44.30540275 73.0229984 44.3828125 77.203125 C43.11030673 80.34696277 42.38925066 81.37441745 39.3203125 82.828125 C35.8203125 83.328125 35.8203125 83.328125 32.3203125 82.828125 C28.42399308 79.40408672 26.3092472 74.26213059 23.890625 69.72265625 C22.43600361 67.04137651 20.90716535 64.43272379 19.3203125 61.828125 C17.22227927 58.37511197 15.23827913 54.8843548 13.3203125 51.328125 C11.45900238 47.87965122 9.54369109 44.48888813 7.5078125 41.140625 C4.7442188 36.578853 2.07928891 31.96555263 -0.5546875 27.328125 C-0.96050049 26.62083252 -1.36631348 25.91354004 -1.78442383 25.18481445 C-4.6796875 20.06108641 -4.6796875 20.06108641 -4.6796875 17.828125 C-5.3396875 17.828125 -5.9996875 17.828125 -6.6796875 17.828125 C-9.07276428 12.9422599 -10.32212924 9.39595339 -9.6796875 3.828125 C-6.98442804 0.30419881 -4.29434845 -0.19331472 0 0 Z " fill="#F4F4F2" transform="translate(203.6796875,112.171875)"/>
<path d="M0 0 C3.92302828 3.35643707 6.34111773 6.93698282 8.8125 11.4375 C9.51287738 12.69669438 10.21340205 13.95580686 10.9140625 15.21484375 C11.4385498 16.16786377 11.4385498 16.16786377 11.97363281 17.14013672 C13.5194818 19.94134452 15.10231034 22.72090168 16.6875 25.5 C17.00509277 26.0576001 17.32268555 26.6152002 17.64990234 27.18969727 C20.30093866 31.82489431 23.01609621 36.42092774 25.74072266 41.01318359 C27.97728093 44.78540461 30.20158543 48.56480489 32.42675781 52.34375 C33.88199107 54.80075462 35.35669544 57.24490813 36.8359375 59.6875 C37.6622702 61.08285286 38.48784554 62.47865464 39.3125 63.875 C39.69140381 64.48585449 40.07030762 65.09670898 40.46069336 65.72607422 C43.19399188 70.42378899 43.47091268 73.71905063 43 79 C41.4375 81 41.4375 81 39 82 C32.80996706 82.65158241 32.80996706 82.65158241 30.421875 80.73046875 C28.90073382 78.87918979 27.86226214 77.08931128 26.8125 74.9375 C26.46832031 74.24527344 26.12414062 73.55304688 25.76953125 72.83984375 C25 71 25 71 25 69 C24.34 69 23.68 69 23 69 C22.566875 67.948125 22.13375 66.89625 21.6875 65.8125 C20.68434768 63.45270359 19.64056505 61.40094175 18.3125 59.1875 C17 57 17 57 17 55 C16.34 55 15.68 55 15 55 C14.63648438 54.24976563 14.27296875 53.49953125 13.8984375 52.7265625 C13.14433594 51.19128906 13.14433594 51.19128906 12.375 49.625 C11.88773437 48.62726563 11.40046875 47.62953125 10.8984375 46.6015625 C8.98474796 42.85461776 6.79494598 39.28548526 4.61425781 35.68945312 C1.32474024 30.20891387 -1.78993955 24.62619919 -4.93945312 19.06445312 C-5.45056641 18.16533203 -5.96167969 17.26621094 -6.48828125 16.33984375 C-6.94759033 15.52894287 -7.40689941 14.71804199 -7.88012695 13.88256836 C-8.8623521 12.05557938 -8.8623521 12.05557938 -10 11 C-10.46023689 3.86632826 -10.46023689 3.86632826 -8.9375 1 C-5.76942356 -0.63513623 -3.49884179 -0.48259887 0 0 Z " fill="#F5F5F2" transform="translate(403,445)"/>
<path d="M0 0 C2 1.0625 2 1.0625 3 3 C3.60554967 7.08746028 3.5996437 9.15222788 1.1875 12.5625 C-2.98005497 16.1720063 -8.14593546 18.46533111 -13 21 C-14.35849712 21.78421237 -15.71346102 22.57462677 -17.0625 23.375 C-20 25 -20 25 -22 25 C-22 25.66 -22 26.32 -22 27 C-23.50820312 27.60908203 -23.50820312 27.60908203 -25.046875 28.23046875 C-29.0052864 29.92820952 -32.59553698 32.04608086 -36.25 34.3125 C-41.50636883 37.5234304 -46.80046992 40.57678879 -52.25390625 43.4453125 C-54.89794065 44.9422196 -57.37492123 46.6081179 -59.88525391 48.31640625 C-65.58306453 52.12489917 -69.34520738 53.907936 -76.171875 52.59765625 C-78 52 -78 52 -79 51 C-79.2734375 49.07421875 -79.2734375 49.07421875 -79.375 46.6875 C-79.42398438 45.90761719 -79.47296875 45.12773437 -79.5234375 44.32421875 C-78.73809682 40.83707169 -76.9308308 39.9629932 -74 38 C-71.57713695 36.57998677 -69.15532643 35.21068236 -66.6875 33.875 C-60.01941366 30.21657605 -53.5708385 26.29926594 -47.22924805 22.09912109 C-43.77685266 19.8690519 -42.22222397 19 -38 19 C-38 18.34 -38 17.68 -38 17 C-37.36835938 16.6596875 -36.73671875 16.319375 -36.0859375 15.96875 C-23.02376434 8.95301637 -23.02376434 8.95301637 -10.34375 1.28515625 C-6.63440566 -0.7488009 -4.18690691 -0.40518454 0 0 Z " fill="#F6F6F4" transform="translate(192,393)"/>
<path d="M0 0 C2.5 1.0625 2.5 1.0625 4 3 C4.6875 6.3125 4.6875 6.3125 4 10 C-0.61872469 15.54154404 -7.54666231 18.71972505 -13.8125 22 C-20.16654981 25.36777796 -26.43573292 28.79974808 -32.58178711 32.53564453 C-36.47860167 34.89537131 -40.42835672 37.1624535 -44.375 39.4375 C-46.02610119 40.39182411 -47.67714283 41.34625125 -49.328125 42.30078125 C-51.55789919 43.58910529 -53.78771127 44.8773637 -56.01757812 46.16552734 C-57.72096589 47.15043951 -59.42304163 48.13761985 -61.125 49.125 C-62.05570312 49.66382813 -62.98640625 50.20265625 -63.9453125 50.7578125 C-65.91874604 51.83898403 -65.91874604 51.83898403 -67 53 C-74.25146199 53.58479532 -74.25146199 53.58479532 -77 51.4375 C-78.40358168 48.01626965 -78.52306944 45.66148608 -78 42 C-74.10828715 38.3115294 -69.43457052 35.78383968 -64.8125 33.125 C-63.29525952 32.24533198 -61.77833116 31.3651254 -60.26171875 30.484375 C-59.53130371 30.06091797 -58.80088867 29.63746094 -58.04833984 29.20117188 C-54.61789289 27.18951526 -51.24633402 25.08218278 -47.8828125 22.9609375 C-46 22 -46 22 -43 22 C-43 21.34 -43 20.68 -43 20 C-42.14921875 19.56171875 -41.2984375 19.1234375 -40.421875 18.671875 C-39.19719013 18.03264002 -37.97330335 17.39187483 -36.75 16.75 C-36.0912085 16.40517578 -35.43241699 16.06035156 -34.75366211 15.70507812 C-30.68534634 13.53931344 -26.73625374 11.24709615 -22.83203125 8.796875 C-21.95772461 8.25192383 -21.08341797 7.70697266 -20.18261719 7.14550781 C-18.46405826 6.06620413 -16.75461608 4.97221607 -15.05566406 3.86230469 C-9.71026607 0.51739769 -6.31692866 -0.7280763 0 0 Z " fill="#F5F5F3" transform="translate(523,194)"/>
<path d="M0 0 C28.71 0 57.42 0 87 0 C87 0.33 87 0.66 87 1 C85.94399597 1.00808685 84.88799194 1.01617371 83.79998779 1.02450562 C73.85301231 1.10195657 63.90617379 1.18969326 53.95937729 1.28752708 C48.84550444 1.33749435 43.73165229 1.38382443 38.61767578 1.421875 C33.68333677 1.45872226 28.74917077 1.50508083 23.81497955 1.55806351 C21.93154177 1.5766104 20.04806689 1.59171727 18.16457367 1.60334396 C15.52848048 1.62020128 12.89278378 1.64923511 10.25683594 1.68115234 C9.08618843 1.68439262 9.08618843 1.68439262 7.89189148 1.68769836 C4.12207136 1.7460919 1.1991606 1.88711712 -2 4 C-1.34 2.68 -0.68 1.36 0 0 Z " fill="#E1E1E0" transform="translate(83,316)"/>
<path d="M0 0 C0.33 0 0.66 0 1 0 C1.17679162 10.91753859 1.34275898 21.83518229 1.49477577 32.75309563 C1.56570063 37.82231329 1.640402 42.89141749 1.72363281 47.96044922 C1.80376603 52.84918701 1.87411146 57.73797529 1.93757248 62.62695694 C1.96356501 64.49538518 1.99312881 66.36376715 2.02626419 68.23208237 C2.07195216 70.84202786 2.10512169 73.45184693 2.13525391 76.06201172 C2.1517952 76.8402832 2.16833649 77.61855469 2.18537903 78.42041016 C2.20023556 80.28124037 2.10971319 82.1423475 2 84 C1.01 84.99 1.01 84.99 0 86 C-1.30790086 82.06256964 -1.09215325 78.11140708 -1.02172852 74.01855469 C-1.01212097 73.2181778 -1.00251343 72.4178009 -0.99261475 71.59317017 C-0.9596837 68.9526473 -0.91932897 66.31229293 -0.87890625 63.671875 C-0.85459937 61.83913768 -0.8307561 60.00639416 -0.80735779 58.17364502 C-0.74457337 53.35344367 -0.67549073 48.53335235 -0.60510254 43.71325684 C-0.53436814 38.79326379 -0.46958173 33.87319284 -0.40429688 28.953125 C-0.27535726 19.3019977 -0.13976479 9.65097617 0 0 Z " fill="#111110" transform="translate(308,86)"/>
<path d="M0 0 C0 3 0 3 -2.1875 5.3125 C-3.115625 6.199375 -4.04375 7.08625 -5 8 C-8.85462247 11.86813168 -8.85462247 11.86813168 -10 17 C-10.89138672 17.14695313 -10.89138672 17.14695313 -11.80078125 17.296875 C-15.6627999 18.53162341 -17.77762823 21.73180622 -20 25 C-20.94240924 27.75764351 -20.94240924 27.75764351 -21 30 C-21.99 29.67 -22.98 29.34 -24 29 C-21.90631431 23.01652263 -18.02967264 18.79897378 -14 14 C-13.39414063 13.26910156 -12.78828125 12.53820312 -12.1640625 11.78515625 C-8.42965222 7.3832835 -4.47194484 3.65056722 0 0 Z " fill="#D4D4D1" transform="translate(249,234)"/>
<path d="M0 0 C3.49186021 -0.20145347 6.19917389 -0.34907805 9.4375 1.0625 C11 3 11 3 11.375 6.5625 C11 10 11 10 9 12 C8.34 11.67 7.68 11.34 7 11 C7.33 9.35 7.66 7.7 8 6 C6.35 6.33 4.7 6.66 3 7 C3.66 5.35 4.32 3.7 5 2 C3.35 1.67 1.7 1.34 0 1 C0 0.67 0 0.34 0 0 Z " fill="#E1E2E0" transform="translate(242,448)"/>
<path d="M0 0 C2 2 2 2 2 5 C1.34 5 0.68 5 0 5 C0 5.66 0 6.32 0 7 C0.66 7 1.32 7 2 7 C1.67 7.66 1.34 8.32 1 9 C-1.0625 9.625 -1.0625 9.625 -3 10 C-3.309375 8.88625 -3.61875 7.7725 -3.9375 6.625 C-4.82326483 3.2054845 -4.82326483 3.2054845 -6 1 C-4 0 -4 0 0 0 Z " fill="#141414" transform="translate(198,392)"/>
<path d="M0 0 C2.25 0.25 2.25 0.25 4 1 C3.01 3.31 2.02 5.62 1 8 C0.34 8 -0.32 8 -1 8 C-1.66 9.32 -2.32 10.64 -3 12 C-3.33 10.35 -3.66 8.7 -4 7 C-3.34 7 -2.68 7 -2 7 C-2 6.34 -2 5.68 -2 5 C-2.66 4.67 -3.32 4.34 -4 4 C-2.25 1.9375 -2.25 1.9375 0 0 Z " fill="#ECECEA" transform="translate(429,132)"/>
<path d="M0 0 C0.66 1.32 1.32 2.64 2 4 C1.01 4.495 1.01 4.495 0 5 C-0.12375 5.639375 -0.2475 6.27875 -0.375 6.9375 C-0.58125 7.618125 -0.7875 8.29875 -1 9 C-2.31647119 9.69937532 -3.65022151 10.36729133 -5 11 C-5.33 11.99 -5.66 12.98 -6 14 C-6.66 14 -7.32 14 -8 14 C-6.6744419 10.37723685 -5.05653045 7.36494652 -2.875 4.1875 C-2.33617187 3.39730469 -1.79734375 2.60710937 -1.2421875 1.79296875 C-0.83226562 1.20128906 -0.42234375 0.60960937 0 0 Z " fill="#2F2F2F" transform="translate(244,260)"/>
<path d="M0 0 C0.66 0.33 1.32 0.66 2 1 C1.319375 2.051875 1.319375 2.051875 0.625 3.125 C-1.03083876 6.05456088 -2.13371687 8.75143828 -3 12 C-2.67 12.66 -2.34 13.32 -2 14 C-2.99 13.67 -3.98 13.34 -5 13 C-5.29359745 9.9465865 -5.4451258 7.04256578 -5 4 C-2.5 1.4375 -2.5 1.4375 0 0 Z " fill="#C2C2C1" transform="translate(118,431)"/>
<path d="M0 0 C-1.75 4.875 -1.75 4.875 -4 6 C-4 5.34 -4 4.68 -4 4 C-5.32 5.32 -6.64 6.64 -8 8 C-9.32 7.34 -10.64 6.68 -12 6 C-10.37829621 4.99466333 -8.75252763 3.99588093 -7.125 3 C-5.76761719 2.1646875 -5.76761719 2.1646875 -4.3828125 1.3125 C-2 0 -2 0 0 0 Z " fill="#333432" transform="translate(148,432)"/>
<path d="M0 0 C0.33 0 0.66 0 1 0 C1.35820896 7.28358209 1.35820896 7.28358209 0 10 C-3.27967758 11.63983879 -6.37138689 11.17845638 -10 11 C-7.61426621 9.10786631 -5.92824652 7.97608217 -3 7 C-2.67 6.34 -2.34 5.68 -2 5 C-1.34 5 -0.68 5 0 5 C0 3.35 0 1.7 0 0 Z " fill="#D2D2D1" transform="translate(191,242)"/>
<path d="M0 0 C-0.66 1.98 -1.32 3.96 -2 6 C-3.65 6 -5.3 6 -7 6 C-6.75 3.625 -6.75 3.625 -6 1 C-2.69333333 -1.34666667 -2.69333333 -1.34666667 0 0 Z " fill="#1E1E1D" transform="translate(162,425)"/>
<path d="M0 0 C-0.33 1.65 -0.66 3.3 -1 5 C-1.66 5 -2.32 5 -3 5 C-3 5.66 -3 6.32 -3 7 C-3.66 7 -4.32 7 -5 7 C-5.66 8.32 -6.32 9.64 -7 11 C-7.33 10.34 -7.66 9.68 -8 9 C-7.29296875 7.08984375 -7.29296875 7.08984375 -6.1875 4.9375 C-5.83042969 4.22464844 -5.47335938 3.51179688 -5.10546875 2.77734375 C-3.65962149 0.45274833 -2.72767234 0 0 0 Z " fill="#E5E5E1" transform="translate(223,273)"/>
<path d="M0 0 C3.65316671 1.24976756 4.78065836 1.67098753 7 5 C7.125 8.1875 7.125 8.1875 7 11 C4.23455278 7.54319097 2.15078722 3.85658398 0 0 Z " fill="#171717" transform="translate(416,465)"/>
<path d="M0 0 C0.66 0.33 1.32 0.66 2 1 C1.2884375 1.6496875 1.2884375 1.6496875 0.5625 2.3125 C-1.23686957 4.02309613 -1.23686957 4.02309613 -2 7 C-4.5625 8.1875 -4.5625 8.1875 -7 9 C-7.66 8.34 -8.32 7.68 -9 7 C-6.03 4.69 -3.06 2.38 0 0 Z " fill="#2A2A29" transform="translate(390,405)"/>
<path d="M0 0 C0 3.58784961 -0.88385822 4.70021279 -2.875 7.625 C-3.40867187 8.42164063 -3.94234375 9.21828125 -4.4921875 10.0390625 C-6 12 -6 12 -8 13 C-4 2 -4 2 0 0 Z " fill="#DEDEDE" transform="translate(398,165)"/>
<path d="M0 0 C0.33 0 0.66 0 1 0 C1.309375 1.093125 1.61875 2.18625 1.9375 3.3125 C2.58337897 5.55407994 3.2623117 7.7869351 4 10 C2.68 10.33 1.36 10.66 0 11 C-1.37432457 7.18243176 -0.67975039 3.92744671 0 0 Z " fill="#373737" transform="translate(444,237)"/>
<path d="M0 0 C0.66 0.99 1.32 1.98 2 3 C1.401875 3.721875 0.80375 4.44375 0.1875 5.1875 C-1.77422196 7.70971395 -3.41723983 10.2301697 -5 13 C-5.33 12.34 -5.66 11.68 -6 11 C-4.78515625 8.3984375 -4.78515625 8.3984375 -3.0625 5.375 C-2.21365234 3.87066406 -2.21365234 3.87066406 -1.34765625 2.3359375 C-0.90292969 1.56507812 -0.45820313 0.79421875 0 0 Z " fill="#CECECD" transform="translate(421,122)"/>
<path d="M0 0 C0.66 1.32 1.32 2.64 2 4 C-0.83395931 6.32789515 -2.29511572 7.07377893 -6 8 C-4.02 5.36 -2.04 2.72 0 0 Z " fill="#232323" transform="translate(406,389)"/>
<path d="M0 0 C3.5625 0.1875 3.5625 0.1875 5.5625 2.1875 C5.2325 2.8475 4.9025 3.5075 4.5625 4.1875 C2.5 4.8125 2.5 4.8125 0.5625 5.1875 C0.2325 4.1975 -0.0975 3.2075 -0.4375 2.1875 C-2.45258358 1.45426204 -2.45258358 1.45426204 -4.4375 1.1875 C-3.4375 0.1875 -3.4375 0.1875 0 0 Z " fill="#D8D8D8" transform="translate(454.4375,386.8125)"/>
<path d="M0 0 C0.66 0 1.32 0 2 0 C1.814375 0.61875 1.62875 1.2375 1.4375 1.875 C0.76313824 4.04160178 0.76313824 4.04160178 2 6 C0.02 6.99 -1.96 7.98 -4 9 C-3.35494404 5.51669784 -2.01782732 2.90567134 0 0 Z " fill="#2F2F2D" transform="translate(412,168)"/>
<path d="M0 0 C0.33 0 0.66 0 1 0 C1 2.64 1 5.28 1 8 C0.01 8.33 -0.98 8.66 -2 9 C-2.33 7.02 -2.66 5.04 -3 3 C-2.34 3 -1.68 3 -1 3 C-0.67 2.01 -0.34 1.02 0 0 Z " fill="#E0E0DE" transform="translate(445,516)"/>
<path d="M0 0 C0.66 0.33 1.32 0.66 2 1 C1.175 1.45375 0.35 1.9075 -0.5 2.375 C-1.7375 3.179375 -1.7375 3.179375 -3 4 C-3 4.66 -3 5.32 -3 6 C-5.97 5.505 -5.97 5.505 -9 5 C-6.32239719 2.32239719 -3.52050129 1.32018799 0 0 Z " fill="#C0C0BE" transform="translate(363,405)"/>
<path d="M0 0 C0 3.51716303 -0.82445585 4.37121748 -3 7 C-4.32 6.67 -5.64 6.34 -7 6 C-4.69 4.02 -2.38 2.04 0 0 Z " fill="#D9D9D9" transform="translate(385,390)"/>
<path d="M0 0 C0.66 0.66 1.32 1.32 2 2 C1.67 2.99 1.34 3.98 1 5 C-2.0625 6.1875 -2.0625 6.1875 -5 7 C-1.125 1.125 -1.125 1.125 0 0 Z " fill="#D3D3D2" transform="translate(395,379)"/>
<path d="M0 0 C-1 3 -1 3 -2.9375 4.0625 C-3.618125 4.371875 -4.29875 4.68125 -5 5 C-5.66 5.66 -6.32 6.32 -7 7 C-7.99 6.34 -8.98 5.68 -10 5 C-8.71186658 4.16121545 -7.41936744 3.32913217 -6.125 2.5 C-5.40570313 2.0359375 -4.68640625 1.571875 -3.9453125 1.09375 C-2 0 -2 0 0 0 Z " fill="#CACAC8" transform="translate(500,204)"/>
<path d="M0 0 C0.66 0 1.32 0 2 0 C0.83857315 4.35535069 -0.07699505 6.64619703 -4 9 C-3.35494404 5.51669784 -2.01782732 2.90567134 0 0 Z " fill="#CDCDCD" transform="translate(404,152)"/>
<path d="M0 0 C0.99 0.33 1.98 0.66 3 1 C1.92598892 3.91517292 1.22189824 5.77810176 -1 8 C-1.93065133 5.39417629 -2.14917407 4.35801776 -1.0625 1.75 C-0.711875 1.1725 -0.36125 0.595 0 0 Z " fill="#131313" transform="translate(402,149)"/>
<path d="M0 0 C0.33 0 0.66 0 1 0 C0.25 6.75 0.25 6.75 -2 9 C-2.33 7.35 -2.66 5.7 -3 4 C-2.01 3.67 -1.02 3.34 0 3 C0 2.01 0 1.02 0 0 Z " fill="#101110" transform="translate(204,506)"/>
<path d="M0 0 C1.32 1.32 2.64 2.64 4 4 C3.67 4.66 3.34 5.32 3 6 C1.68 5.67 0.36 5.34 -1 5 C-0.67 3.35 -0.34 1.7 0 0 Z " fill="#292927" transform="translate(225,378)"/>
<path d="M0 0 C0.99 0.33 1.98 0.66 3 1 C2.34 2.98 1.68 4.96 1 7 C0.67 6.34 0.34 5.68 0 5 C-0.66 4.67 -1.32 4.34 -2 4 C-1.34 2.68 -0.68 1.36 0 0 Z " fill="#ECECEA" transform="translate(421,357)"/>
<path d="M0 0 C2.125 0.9375 2.125 0.9375 4 2 C3.67 3.32 3.34 4.64 3 6 C1.35 4.35 -0.3 2.7 -2 1 C-1.34 0.67 -0.68 0.34 0 0 Z " fill="#222222" transform="translate(391,232)"/>
<path d="M0 0 C2.79872437 2.52788007 4.45773019 4.20411134 5 8 C2.00470711 7.00156904 0.84159673 6.48615558 -1 4 C-0.6875 1.8125 -0.6875 1.8125 0 0 Z " fill="#282827" transform="translate(210,152)"/>
<path d="M0 0 C0.66 1.32 1.32 2.64 2 4 C1.01 4.495 1.01 4.495 0 5 C0.33 5.66 0.66 6.32 1 7 C-0.65 6.67 -2.3 6.34 -4 6 C-2.68 4.02 -1.36 2.04 0 0 Z " fill="#30302F" transform="translate(214,524)"/>
<path d="M0 0 C0.66 1.32 1.32 2.64 2 4 C0.02 5.32 -1.96 6.64 -4 8 C-2.87548273 5.0280615 -1.77706209 2.66559313 0 0 Z " fill="#353534" transform="translate(221,512)"/>
<path d="M0 0 C1.485 0.99 1.485 0.99 3 2 C2.67 3.65 2.34 5.3 2 7 C0.4375 5.75 0.4375 5.75 -1 4 C-0.6875 1.8125 -0.6875 1.8125 0 0 Z " fill="#131311" transform="translate(428,481)"/>
<path d="M0 0 C1 3 1 3 1 5 C-1 6.625 -1 6.625 -3 8 C-3.66 7.67 -4.32 7.34 -5 7 C-3.35 4.69 -1.7 2.38 0 0 Z " fill="#2C2C2C" transform="translate(412,381)"/>
<path d="M0 0 C0.33 0 0.66 0 1 0 C1.1875 2.375 1.1875 2.375 1 5 C0.01 5.66 -0.98 6.32 -2 7 C-2.33 6.01 -2.66 5.02 -3 4 C-1.625 1.8125 -1.625 1.8125 0 0 Z " fill="#F0F0F0" transform="translate(243,257)"/>
<path d="M0 0 C0.66 0.33 1.32 0.66 2 1 C1.21625 1.61875 0.4325 2.2375 -0.375 2.875 C-2.96837647 4.89858661 -2.96837647 4.89858661 -5 7 C-5 6.34 -5 5.68 -5 5 C-5.66 4.67 -6.32 4.34 -7 4 C-1.7265625 0.77734375 -1.7265625 0.77734375 0 0 Z " fill="#2E2E2E" transform="translate(495,223)"/>
<path d="M0 0 C0.66 0.33 1.32 0.66 2 1 C1.67 1.66 1.34 2.32 1 3 C1.66 3.33 2.32 3.66 3 4 C2.34 4 1.68 4 1 4 C0.67 4.66 0.34 5.32 0 6 C-1.32 4.68 -2.64 3.36 -4 2 C-2.125 0.9375 -2.125 0.9375 0 0 Z " fill="#252524" transform="translate(385,225)"/>
<path d="M0 0 C0.88492145 2.47778006 1.11637742 3.66056586 0.25 6.1875 C-1 8 -1 8 -4 9 C-2.80100302 5.9168649 -1.52299523 2.93720508 0 0 Z " fill="#333331" transform="translate(428,140)"/>
</svg>
